<svg xmlns="http://www.w3.org/2000/svg" viewBox="0 0 348.02 124.49"><defs><style>.cls-1{fill:#2d3142;}.cls-2{fill:#f7f7f7;}.cls-3{fill:#faa31b;}</style></defs><title>Asset 5</title><g id="Layer_2" data-name="Layer 2"><g id="Layer_4" data-name="Layer 4"><path class="cls-1" d="M8.64,90.83A25.22,25.22,0,0,1,0,86.37L3.1,79.6a25.17,25.17,0,0,0,7.74,4.1A28.71,28.71,0,0,0,19.66,85q5.25,0,8.1-1.84A5.8,5.8,0,0,0,30.6,78,4.82,4.82,0,0,0,28,73.62a34.21,34.21,0,0,0-8.75-2.88A51.75,51.75,0,0,1,8.93,67.58,14.55,14.55,0,0,1,3,63a12,12,0,0,1-2-7.13,13.67,13.67,0,0,1,2.44-8,16.19,16.19,0,0,1,6.92-5.51,25.12,25.12,0,0,1,10.29-2A31.65,31.65,0,0,1,30.74,42a22,22,0,0,1,7.92,4.43l-3.09,6.77a23.46,23.46,0,0,0-15-5.4,13.36,13.36,0,0,0-7.74,2A6.34,6.34,0,0,0,10,55.26a5.06,5.06,0,0,0,2.52,4.54c1.68,1.06,4.53,2,8.57,3A57.18,57.18,0,0,1,31.5,66a15.37,15.37,0,0,1,6.12,4.5,10.88,10.88,0,0,1,2.12,6.91,13.43,13.43,0,0,1-2.41,7.95,15.16,15.16,0,0,1-7,5.26,28.9,28.9,0,0,1-10.77,1.84A36.68,36.68,0,0,1,8.64,90.83Z"/><path class="cls-1" d="M48.31,41H70.49q8.13,0,12.67,4.07t4.53,11.41q0,7.34-4.53,11.45T70.49,72H57.6V91.77H48.31Zm21,23.9q9.58,0,9.58-8.35,0-4.25-2.38-6.3t-7.2-2H57.6v16.7Z"/><path class="cls-1" d="M124.13,79.89H99.43L94.32,91.77H85l23-50.76h7.56l23,50.76h-9.21Zm-3.1-7.2-9.29-21.6-9.29,21.6Z"/><path class="cls-1" d="M186.41,91.77H176.33l-8.72-16.2a7.3,7.3,0,0,0-3-3.24,9.7,9.7,0,0,0-4.54-.94H153V91.77h-9.15V41h22.47q8.64,0,13.14,3.85T184,56a14.19,14.19,0,0,1-3.28,9.62,15.72,15.72,0,0,1-9.25,4.93q4,1.08,6.48,5.69ZM172.73,62.28c1.63-1.32,2.44-3.34,2.44-6.08s-.81-4.81-2.44-6.08-4.21-1.91-7.71-1.91H152.93V64.26H165C168.52,64.26,171.09,63.61,172.73,62.28Z"/><path class="cls-1" d="M226.72,91.77,203.18,68.15V91.77h-9.29V41h9.29V63.69L225.79,41h11.09L212.32,65.42,238,91.77Z"/><polygon class="cls-1" points="266.8 69.27 266.62 54.86 220.05 61.62 244.25 85.22 266.8 69.27"/><polygon class="cls-1" points="269.57 50.8 285.54 45.39 264.18 2.1 248.07 34.75 269.57 50.8"/><polygon class="cls-1" points="300.5 22.3 291.2 49.74 301.23 63.18 337.64 27.7 300.5 22.3"/><polygon class="cls-1" points="299.98 70.04 291.75 81.68 337.09 105.52 331.07 70.43 299.98 70.04"/><polygon class="cls-1" points="282.22 80.11 269.99 76.31 261.73 124.49 291.2 109 282.22 80.11"/><polygon class="cls-2" points="271.69 68.23 271.5 53.82 224.93 60.59 249.13 84.18 271.69 68.23"/><polygon class="cls-2" points="274.45 49.76 290.42 44.35 269.06 1.06 252.95 33.72 274.45 49.76"/><polygon class="cls-2" points="305.38 21.26 296.08 48.7 306.11 62.15 342.52 26.66 305.38 21.26"/><polygon class="cls-2" points="304.86 69 296.63 80.64 341.97 104.48 335.95 69.4 304.86 69"/><polygon class="cls-2" points="287.1 79.07 274.87 75.27 266.61 123.45 296.08 107.96 287.1 79.07"/><polygon class="cls-3" points="277.19 67.17 277.01 52.75 230.44 59.52 254.64 83.11 277.19 67.17"/><polygon class="cls-3" points="278.14 49.28 292.77 43.8 273.21 0 258.45 33.04 278.14 49.28"/><polygon class="cls-3" points="310.89 20.2 301.59 47.64 311.62 61.08 348.02 25.59 310.89 20.2"/><polygon class="cls-3" points="310.37 67.93 302.14 79.58 347.48 103.42 341.46 68.33 310.37 67.93"/><polygon class="cls-3" points="290.42 79.03 280.38 74.2 272.12 122.39 301.59 106.89 290.42 79.03"/></g></g></svg>